<svg width="24" height="24" viewBox="0 0 24 24" fill="none" xmlns="http://www.w3.org/2000/svg">
<path d="M12.106 21.1789C11.9247 21.1789 11.7434 21.1122 11.6003 20.9691L5.80928 15.178C5.53261 14.9013 5.53261 14.4434 5.80928 14.1667C6.08595 13.8901 6.54389 13.8901 6.82057 14.1667L12.106 19.4521L17.3914 14.1667C17.668 13.8901 18.126 13.8901 18.4026 14.1667C18.6793 14.4434 18.6793 14.9013 18.4026 15.178L12.6116 20.9691C12.4685 21.1122 12.2872 21.1789 12.106 21.1789Z" fill="#001A38"/>
<path d="M12.1059 21.0169C11.7148 21.0169 11.3904 20.6925 11.3904 20.3014L11.3904 4.24483C11.3904 3.85367 11.7148 3.5293 12.1059 3.5293C12.4971 3.5293 12.8215 3.85367 12.8215 4.24483L12.8215 20.3014C12.8215 20.6925 12.4971 21.0169 12.1059 21.0169Z" fill="#001A38"/>
</svg>
