<svg width="25" height="24" viewBox="0 0 25 24" fill="none" xmlns="http://www.w3.org/2000/svg">
<path d="M18.1587 22.75C17.0287 22.75 15.8387 22.48 14.6087 21.96C13.4087 21.45 12.1987 20.75 11.0187 19.9C9.84874 19.04 8.71874 18.08 7.64874 17.03C6.58874 15.96 5.62874 14.83 4.77874 13.67C3.91874 12.47 3.22874 11.27 2.73874 10.11C2.21874 8.87 1.95874 7.67 1.95874 6.54C1.95874 5.76 2.09874 5.02 2.36874 4.33C2.64874 3.62 3.09874 2.96 3.70874 2.39C4.47874 1.63 5.35874 1.25 6.29874 1.25C6.68874 1.25 7.08874 1.34 7.42874 1.5C7.81874 1.68 8.14874 1.95 8.38874 2.31L10.7087 5.58C10.9187 5.87 11.0787 6.15 11.1887 6.43C11.3187 6.73 11.3887 7.03 11.3887 7.32C11.3887 7.7 11.2787 8.07 11.0687 8.42C10.9187 8.69 10.6887 8.98 10.3987 9.27L9.71874 9.98C9.72874 10.01 9.73874 10.03 9.74874 10.05C9.86874 10.26 10.1087 10.62 10.5687 11.16C11.0587 11.72 11.5187 12.23 11.9787 12.7C12.5687 13.28 13.0587 13.74 13.5187 14.12C14.0887 14.6 14.4587 14.84 14.6787 14.95L14.6587 15L15.3887 14.28C15.6987 13.97 15.9987 13.74 16.2887 13.59C16.8387 13.25 17.5387 13.19 18.2387 13.48C18.4987 13.59 18.7787 13.74 19.0787 13.95L22.3987 16.31C22.7687 16.56 23.0387 16.88 23.1987 17.26C23.3487 17.64 23.4187 17.99 23.4187 18.34C23.4187 18.82 23.3087 19.3 23.0987 19.75C22.8887 20.2 22.6287 20.59 22.2987 20.95C21.7287 21.58 21.1087 22.03 20.3887 22.32C19.6987 22.6 18.9487 22.75 18.1587 22.75ZM6.29874 2.75C5.74874 2.75 5.23874 2.99 4.74874 3.47C4.28874 3.9 3.96874 4.37 3.76874 4.88C3.55874 5.4 3.45874 5.95 3.45874 6.54C3.45874 7.47 3.67874 8.48 4.11874 9.52C4.56874 10.58 5.19874 11.68 5.99874 12.78C6.79874 13.88 7.70874 14.95 8.70874 15.96C9.70874 16.95 10.7887 17.87 11.8987 18.68C12.9787 19.47 14.0887 20.11 15.1887 20.57C16.8987 21.3 18.4987 21.47 19.8187 20.92C20.3287 20.71 20.7787 20.39 21.1887 19.93C21.4187 19.68 21.5987 19.41 21.7487 19.09C21.8687 18.84 21.9287 18.58 21.9287 18.32C21.9287 18.16 21.8987 18 21.8187 17.82C21.7887 17.76 21.7287 17.65 21.5387 17.52L18.2187 15.16C18.0187 15.02 17.8387 14.92 17.6687 14.85C17.4487 14.76 17.3587 14.67 17.0187 14.88C16.8187 14.98 16.6387 15.13 16.4387 15.33L15.6787 16.08C15.2887 16.46 14.6887 16.55 14.2287 16.38L13.9587 16.26C13.5487 16.04 13.0687 15.7 12.5387 15.25C12.0587 14.84 11.5387 14.36 10.9087 13.74C10.4187 13.24 9.92874 12.71 9.41874 12.12C8.94874 11.57 8.60874 11.1 8.39874 10.71L8.27874 10.41C8.21874 10.18 8.19874 10.05 8.19874 9.91C8.19874 9.55 8.32874 9.23 8.57874 8.98L9.32874 8.2C9.52874 8 9.67874 7.81 9.77874 7.64C9.85874 7.51 9.88874 7.4 9.88874 7.3C9.88874 7.22 9.85874 7.1 9.80874 6.98C9.73874 6.82 9.62874 6.64 9.48874 6.45L7.16874 3.17C7.06874 3.03 6.94874 2.93 6.79874 2.86C6.63874 2.79 6.46874 2.75 6.29874 2.75ZM14.6587 15.01L14.4987 15.69L14.7687 14.99C14.7187 14.98 14.6787 14.99 14.6587 15.01Z" fill="white"/>
<path d="M20.7088 9.55C20.2988 9.55 19.9588 9.21 19.9588 8.8V4.75H15.9088C15.4988 4.75 15.1588 4.41 15.1588 4C15.1588 3.59 15.4988 3.25 15.9088 3.25H20.7088C21.1188 3.25 21.4588 3.59 21.4588 4V8.8C21.4588 9.21 21.1188 9.55 20.7088 9.55Z" fill="white"/>
</svg>
