<svg width="25" height="25" viewBox="0 0 25 25" fill="none" xmlns="http://www.w3.org/2000/svg">
<path d="M17.4331 4.47076C17.4331 4.33815 17.3804 4.21097 17.2867 4.1172C17.1929 4.02344 17.0657 3.97076 16.9331 3.97076H14.4331C13.1742 3.90805 11.9417 4.34615 11.0048 5.18934C10.068 6.03252 9.50289 7.21225 9.43311 8.47076V11.1708H6.93311C6.8005 11.1708 6.67332 11.2234 6.57955 11.3172C6.48578 11.411 6.43311 11.5381 6.43311 11.6708V14.2708C6.43311 14.4034 6.48578 14.5305 6.57955 14.6243C6.67332 14.7181 6.8005 14.7708 6.93311 14.7708H9.43311V21.4708C9.43311 21.6034 9.48578 21.7305 9.57955 21.8243C9.67332 21.9181 9.8005 21.9708 9.93311 21.9708H12.9331C13.0657 21.9708 13.1929 21.9181 13.2867 21.8243C13.3804 21.7305 13.4331 21.6034 13.4331 21.4708V14.7708H16.0531C16.1643 14.7724 16.2728 14.7368 16.3616 14.6698C16.4503 14.6028 16.5142 14.5081 16.5431 14.4008L17.2631 11.8008C17.283 11.7269 17.2857 11.6494 17.2709 11.5743C17.2562 11.4993 17.2244 11.4286 17.178 11.3677C17.1317 11.3069 17.0719 11.2575 17.0035 11.2233C16.935 11.1892 16.8596 11.1712 16.7831 11.1708H13.4331V8.47076C13.458 8.22323 13.5742 7.99387 13.7591 7.82745C13.944 7.66103 14.1843 7.56951 14.4331 7.57076H16.9331C17.0657 7.57076 17.1929 7.51808 17.2867 7.42431C17.3804 7.33054 17.4331 7.20336 17.4331 7.07076V4.47076Z" fill="url(#paint0_linear_1_2653)"/>
<defs>
<linearGradient id="paint0_linear_1_2653" x1="-0.971424" y1="-5.10097" x2="25.4977" y2="-3.05698" gradientUnits="userSpaceOnUse">
<stop stop-color="#FF0F7B"/>
<stop offset="1" stop-color="#F89B29"/>
</linearGradient>
</defs>
</svg>
