<svg width="25" height="25" viewBox="0 0 25 25" fill="none" xmlns="http://www.w3.org/2000/svg">
<path d="M12.4331 8.16368C9.77294 8.16368 7.62606 10.3106 7.62606 12.9707C7.62606 15.6309 9.77294 17.7777 12.4331 17.7777C15.0933 17.7777 17.2401 15.6309 17.2401 12.9707C17.2401 10.3106 15.0933 8.16368 12.4331 8.16368ZM12.4331 16.0949C10.7128 16.0949 9.30888 14.691 9.30888 12.9707C9.30888 11.2504 10.7128 9.8465 12.4331 9.8465C14.1534 9.8465 15.5573 11.2504 15.5573 12.9707C15.5573 14.691 14.1534 16.0949 12.4331 16.0949ZM17.437 6.8465C16.8159 6.8465 16.3143 7.34806 16.3143 7.96915C16.3143 8.59025 16.8159 9.09181 17.437 9.09181C18.0581 9.09181 18.5597 8.59259 18.5597 7.96915C18.5598 7.82167 18.5309 7.6756 18.4746 7.53931C18.4182 7.40302 18.3355 7.27919 18.2313 7.1749C18.127 7.07062 18.0031 6.98793 17.8668 6.93158C17.7306 6.87522 17.5845 6.84631 17.437 6.8465ZM21.8034 12.9707C21.8034 11.677 21.8151 10.3949 21.7425 9.10353C21.6698 7.60353 21.3276 6.27228 20.2308 5.1754C19.1315 4.07619 17.8026 3.73634 16.3026 3.66369C15.0089 3.59103 13.7268 3.60275 12.4354 3.60275C11.1417 3.60275 9.85966 3.59103 8.56825 3.66369C7.06825 3.73634 5.737 4.07853 4.64013 5.1754C3.54091 6.27462 3.20106 7.60353 3.12841 9.10353C3.05575 10.3973 3.06747 11.6793 3.06747 12.9707C3.06747 14.2621 3.05575 15.5465 3.12841 16.8379C3.20106 18.3379 3.54325 19.6692 4.64013 20.766C5.73934 21.8652 7.06825 22.2051 8.56825 22.2777C9.862 22.3504 11.144 22.3387 12.4354 22.3387C13.7292 22.3387 15.0112 22.3504 16.3026 22.2777C17.8026 22.2051 19.1339 21.8629 20.2308 20.766C21.33 19.6668 21.6698 18.3379 21.7425 16.8379C21.8175 15.5465 21.8034 14.2645 21.8034 12.9707ZM19.7409 18.4973C19.5698 18.9238 19.3636 19.2426 19.0331 19.5707C18.7026 19.9012 18.3862 20.1074 17.9597 20.2785C16.7268 20.7684 13.7995 20.6582 12.4331 20.6582C11.0667 20.6582 8.137 20.7684 6.90419 20.2809C6.47763 20.1098 6.15888 19.9035 5.83075 19.5731C5.50028 19.2426 5.29403 18.9262 5.12294 18.4996C4.63544 17.2645 4.74559 14.3371 4.74559 12.9707C4.74559 11.6043 4.63544 8.67462 5.12294 7.44181C5.29403 7.01525 5.50028 6.6965 5.83075 6.36837C6.16122 6.04025 6.47763 5.83165 6.90419 5.66056C8.137 5.17306 11.0667 5.28322 12.4331 5.28322C13.7995 5.28322 16.7292 5.17306 17.962 5.66056C18.3886 5.83165 18.7073 6.0379 19.0354 6.36837C19.3659 6.69884 19.5722 7.01525 19.7433 7.44181C20.2308 8.67462 20.1206 11.6043 20.1206 12.9707C20.1206 14.3371 20.2308 17.2645 19.7409 18.4973Z" fill="url(#paint0_linear_1_2659)"/>
<defs>
<linearGradient id="paint0_linear_1_2659" x1="-9.54629" y1="-5.83203" x2="35.0974" y2="-0.188764" gradientUnits="userSpaceOnUse">
<stop stop-color="#FF0F7B"/>
<stop offset="1" stop-color="#F89B29"/>
</linearGradient>
</defs>
</svg>
