<svg width="21" height="21" viewBox="0 0 21 21" fill="none" xmlns="http://www.w3.org/2000/svg">
<g clip-path="url(#clip0_1_2655)">
<path d="M20.4281 20.9706V20.9697H20.4331V13.6347C20.4331 10.0464 19.6606 7.28223 15.4656 7.28223C13.4489 7.28223 12.0956 8.38889 11.5431 9.43806H11.4848V7.61723H7.50726V20.9697H11.6489V14.3581C11.6489 12.6172 11.9789 10.9339 14.1348 10.9339C16.2589 10.9339 16.2906 12.9206 16.2906 14.4697V20.9706H20.4281Z" fill="url(#paint0_linear_1_2655)"/>
<path d="M0.763245 7.61841H4.90991V20.9709H0.763245V7.61841Z" fill="url(#paint1_linear_1_2655)"/>
<path d="M2.83477 0.970703C1.50894 0.970703 0.433105 2.04654 0.433105 3.37237C0.433105 4.6982 1.50894 5.79654 2.83477 5.79654C4.16061 5.79654 5.23644 4.6982 5.23644 3.37237C5.23561 2.04654 4.15977 0.970703 2.83477 0.970703V0.970703Z" fill="url(#paint2_linear_1_2655)"/>
</g>
<defs>
<linearGradient id="paint0_linear_1_2655" x1="-1.19362" y1="0.390271" x2="29.6556" y2="4.07253" gradientUnits="userSpaceOnUse">
<stop stop-color="#FF0F7B"/>
<stop offset="1" stop-color="#F89B29"/>
</linearGradient>
<linearGradient id="paint1_linear_1_2655" x1="-2.02804" y1="0.895542" x2="7.99408" y2="1.28896" gradientUnits="userSpaceOnUse">
<stop stop-color="#FF0F7B"/>
<stop offset="1" stop-color="#F89B29"/>
</linearGradient>
<linearGradient id="paint2_linear_1_2655" x1="-2.80021" y1="-1.45906" x2="8.64572" y2="-0.0189916" gradientUnits="userSpaceOnUse">
<stop stop-color="#FF0F7B"/>
<stop offset="1" stop-color="#F89B29"/>
</linearGradient>
<clipPath id="clip0_1_2655">
<rect width="20" height="20" fill="white" transform="translate(0.433105 0.970703)"/>
</clipPath>
</defs>
</svg>
