<svg width="33" height="33" viewBox="0 0 33 33" fill="none" xmlns="http://www.w3.org/2000/svg">
<path d="M19.3196 29.6323C17.724 29.6323 15.4658 28.51 13.6809 23.1417L12.7073 20.221L9.78654 19.2474C4.43182 17.4625 3.30949 15.2043 3.30949 13.6087C3.30949 12.0266 4.43182 9.75493 9.78654 7.9565L21.2667 4.12977C24.1334 3.1697 26.5268 3.45366 28.0007 4.91404C29.4746 6.37442 29.7586 8.78134 28.7985 11.648L24.9718 23.1282C23.1734 28.51 20.9152 29.6323 19.3196 29.6323ZM10.4221 9.89015C6.66295 11.1477 5.32427 12.6351 5.32427 13.6087C5.32427 14.5823 6.66295 16.0697 10.4221 17.3137L13.8296 18.4496C14.1271 18.5442 14.3705 18.7876 14.4652 19.0851L15.601 22.4927C16.845 26.2518 18.346 27.5905 19.3196 27.5905C20.2932 27.5905 21.7806 26.2518 23.0381 22.4927L26.8649 11.0125C27.5545 8.93009 27.4328 7.22631 26.5539 6.34738C25.6749 5.46845 23.9711 5.36027 21.9023 6.04989L10.4221 9.89015Z" fill="#334A64"/>
<path d="M13.762 19.8558C13.5051 19.8558 13.2482 19.7612 13.0454 19.5584C12.6532 19.1662 12.6532 18.5172 13.0454 18.125L17.8862 13.2706C18.2784 12.8785 18.9274 12.8785 19.3196 13.2706C19.7117 13.6627 19.7117 14.3118 19.3196 14.7039L14.4787 19.5584C14.2894 19.7612 14.0189 19.8558 13.762 19.8558Z" fill="#334A64"/>
</svg>
