<svg width="21" height="20" viewBox="0 0 21 20" fill="none" xmlns="http://www.w3.org/2000/svg">
<path d="M14.8754 17.7084H6.54206C3.5004 17.7084 1.7504 15.9584 1.7504 12.9167V7.08342C1.7504 4.04175 3.5004 2.29175 6.54206 2.29175H14.8754C17.9171 2.29175 19.6671 4.04175 19.6671 7.08342V12.9167C19.6671 15.9584 17.9171 17.7084 14.8754 17.7084ZM6.54206 3.54175C4.15873 3.54175 3.0004 4.70008 3.0004 7.08342V12.9167C3.0004 15.3001 4.15873 16.4584 6.54206 16.4584H14.8754C17.2587 16.4584 18.4171 15.3001 18.4171 12.9167V7.08342C18.4171 4.70008 17.2587 3.54175 14.8754 3.54175H6.54206Z" fill="white"/>
<path d="M10.7086 10.725C10.0086 10.725 9.30023 10.5083 8.75857 10.0666L6.15023 7.98331C5.88356 7.76664 5.83357 7.37497 6.05024 7.10831C6.2669 6.84164 6.65857 6.79164 6.92524 7.00831L9.53356 9.09164C10.1669 9.59998 11.2419 9.59998 11.8752 9.09164L14.4836 7.00831C14.7502 6.79164 15.1502 6.83331 15.3586 7.10831C15.5752 7.37497 15.5336 7.77498 15.2586 7.98331L12.6502 10.0666C12.1169 10.5083 11.4086 10.725 10.7086 10.725Z" fill="white"/>
</svg>
