<svg width="25" height="25" viewBox="0 0 25 25" fill="none" xmlns="http://www.w3.org/2000/svg">
<path d="M12.4097 23.25C6.47967 23.25 1.65967 18.43 1.65967 12.5C1.65967 6.57 6.47967 1.75 12.4097 1.75C18.3397 1.75 23.1597 6.57 23.1597 12.5C23.1597 18.43 18.3397 23.25 12.4097 23.25ZM12.4097 3.25C7.30967 3.25 3.15967 7.4 3.15967 12.5C3.15967 17.6 7.30967 21.75 12.4097 21.75C17.5097 21.75 21.6597 17.6 21.6597 12.5C21.6597 7.4 17.5097 3.25 12.4097 3.25Z" fill="url(#paint0_linear_1_2163)"/>
<path d="M10.9897 16.0801C10.7897 16.0801 10.5997 16.0001 10.4597 15.8601L7.62967 13.0301C7.33967 12.7401 7.33967 12.2601 7.62967 11.9701C7.91967 11.6801 8.39967 11.6801 8.68967 11.9701L10.9897 14.2701L16.1297 9.1301C16.4197 8.8401 16.8997 8.8401 17.1897 9.1301C17.4797 9.4201 17.4797 9.9001 17.1897 10.1901L11.5197 15.8601C11.3797 16.0001 11.1897 16.0801 10.9897 16.0801Z" fill="url(#paint1_linear_1_2163)"/>
<defs>
<linearGradient id="paint0_linear_1_2163" x1="-0.352605" y1="0.912347" x2="27.0739" y2="3.74902" gradientUnits="userSpaceOnUse">
<stop stop-color="#FF0F7B"/>
<stop offset="1" stop-color="#F89B29"/>
</linearGradient>
<linearGradient id="paint1_linear_1_2163" x1="6.47669" y1="8.63335" x2="19.1006" y2="10.4541" gradientUnits="userSpaceOnUse">
<stop stop-color="#FF0F7B"/>
<stop offset="1" stop-color="#F89B29"/>
</linearGradient>
</defs>
</svg>
