<svg width="38" height="37" viewBox="0 0 38 37" fill="none" xmlns="http://www.w3.org/2000/svg">
<path d="M12.1273 14.6234L6.28408 11.2263L0.433105 14.6234V21.4022L6.28408 24.7916L12.1273 21.4022V14.6234ZM10.8691 20.6731L6.28408 23.3257L1.69902 20.6731V15.3525L6.28408 12.6922L10.8691 15.3525V20.6731Z" fill="url(#paint0_linear_1_2643)"/>
<path d="M24.757 14.6157L19.1401 11.2263L13.5306 14.6157V21.3945L19.1401 24.7916L24.757 21.3945V14.6157Z" fill="url(#paint1_linear_1_2643)"/>
<path d="M32.0035 11.2263L26.1603 14.6234V21.4022L32.0035 24.7916L37.8545 21.4022V14.6234L32.0035 11.2263ZM36.5887 20.6731L32.0035 23.3257L27.4185 20.6731V15.3525L32.0035 12.6922L36.5887 15.3525V20.6731Z" fill="url(#paint2_linear_1_2643)"/>
<path d="M6.98187 25.85V32.6288L12.8405 36.0181L18.6761 32.6288V25.85L12.8405 22.4529L6.98187 25.85ZM17.3964 31.923L12.8405 34.5522L8.21528 31.923V26.5791L12.8405 23.9188L17.4118 26.5791L17.3964 31.923Z" fill="url(#paint3_linear_1_2643)"/>
<path d="M19.6116 25.85V32.6288L25.4548 36.0181L31.3058 32.6288V25.85L25.4548 22.4529L19.6116 25.85ZM30.0398 31.923L25.4548 34.5755L20.8775 31.923V26.5791L25.4548 23.9188L30.0398 26.5791V31.923Z" fill="url(#paint4_linear_1_2643)"/>
<path d="M18.6761 10.1759V3.37387L12.8483 0L6.98187 3.37387V10.1526L12.8483 13.5653L18.6761 10.1759ZM8.21692 4.14947L12.8483 1.46589L17.4102 4.14947V9.47009L12.8483 12.0994L8.21692 9.44679V4.14947Z" fill="url(#paint5_linear_1_2643)"/>
<path d="M31.3058 10.1992V3.39711L25.4548 0L19.6116 3.39711V10.1759L25.4548 13.5653L31.3058 10.1992ZM20.8775 4.17272L25.4548 1.51243L30.0398 4.17272V9.49334L25.4548 12.1459L20.8775 9.49334V4.17272Z" fill="url(#paint6_linear_1_2643)"/>
<defs>
<linearGradient id="paint0_linear_1_2643" x1="-7.43871" y1="4.39633" x2="20.5364" y2="7.44477" gradientUnits="userSpaceOnUse">
<stop stop-color="#FF0F7B"/>
<stop offset="1" stop-color="#F89B29"/>
</linearGradient>
<linearGradient id="paint1_linear_1_2643" x1="5.97364" y1="4.39633" x2="32.8545" y2="7.20836" gradientUnits="userSpaceOnUse">
<stop stop-color="#FF0F7B"/>
<stop offset="1" stop-color="#F89B29"/>
</linearGradient>
<linearGradient id="paint2_linear_1_2643" x1="18.2885" y1="4.39633" x2="46.2636" y2="7.44477" gradientUnits="userSpaceOnUse">
<stop stop-color="#FF0F7B"/>
<stop offset="1" stop-color="#F89B29"/>
</linearGradient>
<linearGradient id="paint3_linear_1_2643" x1="-0.889939" y1="15.6229" x2="27.0852" y2="18.6713" gradientUnits="userSpaceOnUse">
<stop stop-color="#FF0F7B"/>
<stop offset="1" stop-color="#F89B29"/>
</linearGradient>
<linearGradient id="paint4_linear_1_2643" x1="11.7398" y1="15.6229" x2="39.7149" y2="18.6713" gradientUnits="userSpaceOnUse">
<stop stop-color="#FF0F7B"/>
<stop offset="1" stop-color="#F89B29"/>
</linearGradient>
<linearGradient id="paint5_linear_1_2643" x1="-0.889939" y1="-6.82998" x2="27.0852" y2="-3.78155" gradientUnits="userSpaceOnUse">
<stop stop-color="#FF0F7B"/>
<stop offset="1" stop-color="#F89B29"/>
</linearGradient>
<linearGradient id="paint6_linear_1_2643" x1="11.7398" y1="-6.82998" x2="39.7149" y2="-3.78155" gradientUnits="userSpaceOnUse">
<stop stop-color="#FF0F7B"/>
<stop offset="1" stop-color="#F89B29"/>
</linearGradient>
</defs>
</svg>
