<svg width="216" height="66" viewBox="0 0 216 66" fill="none" xmlns="http://www.w3.org/2000/svg">
<path d="M214.467 58.2851C214.467 61.7529 211.722 64.5619 208.326 64.5619H7.34762C3.95337 64.5619 1.19824 61.7529 1.19824 58.2851V8.22958C1.19824 4.76341 3.95337 1.94458 7.34762 1.94458H208.324C211.722 1.94458 214.466 4.76341 214.466 8.22958L214.467 58.2851Z" fill="#001D3D"/>
<path d="M207.678 2.02015C211.376 2.02015 214.385 5.08468 214.385 8.85077V57.6554C214.385 61.4215 211.376 64.4861 207.678 64.4861H7.98773C4.28947 64.4861 1.28014 61.4215 1.28014 57.6554V8.85077C1.28014 5.08468 4.28947 2.02015 7.98773 2.02015H207.678ZM207.678 0.71666H7.98773C3.59654 0.71666 0.00012207 4.37904 0.00012207 8.85077V57.6554C0.00012207 62.1272 3.59654 65.7896 7.98773 65.7896H207.678C212.069 65.7896 215.665 62.1272 215.665 57.6554V8.85077C215.665 4.37904 212.069 0.71666 207.678 0.71666Z" fill="#A6A6A6"/>
<path d="M48.1303 32.9019C48.0839 27.6587 52.3461 25.1078 52.541 24.989C50.1272 21.4052 46.3858 20.9155 45.071 20.8764C41.9287 20.5397 38.8806 22.7912 37.2799 22.7912C35.6472 22.7912 33.1823 20.909 30.5256 20.9643C27.1069 21.018 23.9086 23.0336 22.1546 26.1636C18.5346 32.5456 21.2344 41.9243 24.7026 47.0829C26.4375 49.6094 28.4648 52.4303 31.1183 52.331C33.7142 52.222 34.6839 50.6457 37.8167 50.6457C40.9207 50.6457 41.8312 52.331 44.5374 52.2676C47.3235 52.222 49.0776 49.7298 50.7518 47.1805C52.7567 44.2848 53.5618 41.433 53.5938 41.2866C53.5283 41.2638 48.183 39.1863 48.1303 32.9019Z" fill="white"/>
<path d="M43.0182 17.4829C44.4144 15.7048 45.3697 13.2857 45.1046 10.8308C43.0837 10.9219 40.5564 12.2543 39.1011 13.9934C37.8135 15.5258 36.6633 18.0376 36.9604 20.3998C39.2305 20.5722 41.5613 19.2333 43.0182 17.4829Z" fill="white"/>
<path d="M78.3586 16.9996C78.3586 18.9144 77.7946 20.3558 76.6684 21.3237C75.6252 22.2169 74.1427 22.6642 72.2225 22.6642C71.2703 22.6642 70.4556 22.6219 69.7735 22.5373V12.0753C70.6633 11.9288 71.6218 11.854 72.657 11.854C74.4862 11.854 75.8648 12.2591 76.7946 13.0692C77.8362 13.9851 78.3586 15.2947 78.3586 16.9996ZM76.5933 17.0468C76.5933 15.8056 76.2706 14.8539 75.6252 14.1901C74.9798 13.528 74.0373 13.1961 72.796 13.1961C72.2688 13.1961 71.8199 13.2319 71.4477 13.3068V21.2603C71.6538 21.2928 72.0308 21.3075 72.5787 21.3075C73.8599 21.3075 74.8488 20.9447 75.5453 20.2191C76.2418 19.4936 76.5933 18.4361 76.5933 17.0468Z" fill="white"/>
<path d="M87.7184 18.672C87.7184 19.8515 87.3878 20.8178 86.7264 21.5759C86.0331 22.3551 85.1145 22.744 83.9675 22.744C82.862 22.744 81.9817 22.3714 81.3252 21.6231C80.6702 20.8764 80.3427 19.9344 80.3427 18.7989C80.3427 17.6113 80.6798 16.6369 81.3571 15.8804C82.0345 15.1239 82.945 14.7449 84.0921 14.7449C85.1976 14.7449 86.0858 15.1174 86.7583 15.8641C87.3973 16.5897 87.7184 17.5267 87.7184 18.672ZM85.9819 18.7273C85.9819 18.0197 85.8318 17.4129 85.533 16.9069C85.1816 16.2952 84.6816 15.9894 84.0314 15.9894C83.3588 15.9894 82.8476 16.2952 82.4961 16.9069C82.1958 17.4129 82.0472 18.0294 82.0472 18.7582C82.0472 19.4659 82.1974 20.0727 82.4961 20.5787C82.8588 21.1903 83.3636 21.4962 84.0154 21.4962C84.6544 21.4962 85.156 21.1855 85.5171 20.5624C85.827 20.0467 85.9819 19.435 85.9819 18.7273Z" fill="white"/>
<path d="M100.269 14.9011L97.9122 22.57H96.3786L95.4025 19.2399C95.1549 18.4086 94.9536 17.5821 94.797 16.7622H94.7667C94.6213 17.6049 94.42 18.4297 94.1612 19.2399L93.1244 22.57H91.5732L89.3575 14.9011H91.078L91.9295 18.5468C92.1356 19.409 92.3049 20.2306 92.4407 21.0082H92.471C92.5957 20.3672 92.8017 19.5506 93.0925 18.5631L94.1612 14.9028H95.5255L96.5495 18.485C96.7971 19.3586 96.9984 20.1997 97.1534 21.0098H97.1997C97.3131 20.2208 97.4841 19.3798 97.7109 18.485L98.6247 14.9028H100.269V14.9011Z" fill="white"/>
<path d="M108.948 22.5699H107.274V18.1775C107.274 16.824 106.769 16.1472 105.756 16.1472C105.259 16.1472 104.858 16.3327 104.547 16.7052C104.238 17.0777 104.082 17.517 104.082 18.0197V22.5683H102.408V17.0924C102.408 16.4189 102.387 15.6884 102.347 14.8978H103.818L103.897 16.0968H103.943C104.138 15.7242 104.429 15.4167 104.81 15.1711C105.264 14.8848 105.772 14.74 106.328 14.74C107.031 14.74 107.616 14.971 108.08 15.4346C108.659 16.0024 108.948 16.85 108.948 17.9757V22.5699Z" fill="white"/>
<path d="M113.565 22.57H111.892V11.3823H113.565V22.57Z" fill="white"/>
<path d="M123.421 18.672C123.421 19.8515 123.091 20.8178 122.429 21.5759C121.736 22.3551 120.816 22.744 119.67 22.744C118.563 22.744 117.683 22.3714 117.028 21.6231C116.373 20.8764 116.046 19.9344 116.046 18.7989C116.046 17.6113 116.383 16.6369 117.06 15.8804C117.737 15.1239 118.648 14.7449 119.794 14.7449C120.901 14.7449 121.787 15.1174 122.461 15.8641C123.1 16.5897 123.421 17.5267 123.421 18.672ZM121.683 18.7273C121.683 18.0197 121.533 17.4129 121.234 16.9069C120.885 16.2952 120.383 15.9894 119.734 15.9894C119.06 15.9894 118.549 16.2952 118.199 16.9069C117.899 17.4129 117.75 18.0294 117.75 18.7582C117.75 19.4659 117.9 20.0727 118.199 20.5787C118.562 21.1903 119.067 21.4962 119.718 21.4962C120.357 21.4962 120.857 21.1855 121.218 20.5624C121.53 20.0467 121.683 19.435 121.683 18.7273Z" fill="white"/>
<path d="M131.524 22.5699H130.021L129.896 21.6865H129.85C129.335 22.3909 128.602 22.744 127.65 22.744C126.939 22.744 126.364 22.5113 125.931 22.0493C125.538 21.6296 125.342 21.1074 125.342 20.4876C125.342 19.5505 125.725 18.8363 126.497 18.3418C127.267 17.8472 128.35 17.6048 129.744 17.6162V17.4731C129.744 16.4628 129.224 15.9585 128.18 15.9585C127.438 15.9585 126.783 16.1488 126.217 16.5262L125.877 15.407C126.577 14.9661 127.441 14.7449 128.46 14.7449C130.428 14.7449 131.415 15.8023 131.415 17.9172V20.7413C131.415 21.5076 131.452 22.1176 131.524 22.5699ZM129.786 19.9344V18.7517C127.939 18.7192 127.016 19.2349 127.016 20.2972C127.016 20.6974 127.121 20.9968 127.337 21.1968C127.553 21.3969 127.827 21.4962 128.155 21.4962C128.522 21.4962 128.866 21.3774 129.179 21.1415C129.494 20.904 129.687 20.6031 129.759 20.2338C129.776 20.1508 129.786 20.0499 129.786 19.9344Z" fill="white"/>
<path d="M141.037 22.57H139.552L139.473 21.3385H139.427C138.953 22.2755 138.144 22.7441 137.008 22.7441C136.101 22.7441 135.345 22.3813 134.746 21.6557C134.147 20.9301 133.848 19.9882 133.848 18.8315C133.848 17.5903 134.173 16.5849 134.825 15.817C135.456 15.1012 136.229 14.7433 137.149 14.7433C138.16 14.7433 138.868 15.0899 139.27 15.7845H139.302V11.3823H140.978V20.5039C140.978 21.2506 140.997 21.9388 141.037 22.57ZM139.302 19.3359V18.0572C139.302 17.8359 139.286 17.657 139.256 17.5203C139.162 17.1104 138.959 16.7655 138.651 16.4873C138.339 16.2091 137.964 16.0692 137.531 16.0692C136.906 16.0692 136.417 16.3214 136.058 16.8273C135.702 17.3332 135.521 17.9791 135.521 18.7681C135.521 19.5262 135.692 20.1411 136.035 20.6145C136.398 21.1189 136.887 21.371 137.499 21.371C138.048 21.371 138.488 21.1612 138.822 20.7398C139.144 20.351 139.302 19.8825 139.302 19.3359Z" fill="white"/>
<path d="M155.356 18.672C155.356 19.8515 155.025 20.8178 154.364 21.5759C153.671 22.3551 152.754 22.744 151.605 22.744C150.501 22.744 149.621 22.3714 148.963 21.6231C148.308 20.8764 147.98 19.9344 147.98 18.7989C147.98 17.6113 148.317 16.6369 148.995 15.8804C149.672 15.1239 150.583 14.7449 151.731 14.7449C152.835 14.7449 153.725 15.1174 154.396 15.8641C155.035 16.5897 155.356 17.5267 155.356 18.672ZM153.621 18.7273C153.621 18.0197 153.471 17.4129 153.172 16.9069C152.819 16.2952 152.321 15.9894 151.669 15.9894C150.998 15.9894 150.487 16.2952 150.134 16.9069C149.833 17.4129 149.685 18.0294 149.685 18.7582C149.685 19.4659 149.835 20.0727 150.134 20.5787C150.496 21.1903 151.001 21.4962 151.653 21.4962C152.292 21.4962 152.795 21.1855 153.156 20.5624C153.464 20.0467 153.621 19.435 153.621 18.7273Z" fill="white"/>
<path d="M164.358 22.5699H162.685V18.1775C162.685 16.824 162.181 16.1472 161.166 16.1472C160.669 16.1472 160.268 16.3327 159.958 16.7052C159.648 17.0777 159.493 17.517 159.493 18.0197V22.5683H157.818V17.0924C157.818 16.4189 157.799 15.6884 157.759 14.8978H159.228L159.307 16.0968H159.353C159.549 15.7242 159.84 15.4167 160.22 15.1711C160.676 14.8848 161.182 14.74 161.74 14.74C162.441 14.74 163.026 14.971 163.49 15.4346C164.07 16.0024 164.358 16.85 164.358 17.9757V22.5699Z" fill="white"/>
<path d="M175.625 16.1782H173.782V19.9036C173.782 20.8504 174.109 21.3238 174.758 21.3238C175.058 21.3238 175.307 21.2978 175.504 21.2441L175.547 22.5374C175.216 22.6643 174.782 22.7277 174.247 22.7277C173.585 22.7277 173.071 22.5228 172.699 22.1128C172.325 21.7028 172.139 21.0131 172.139 20.0451V16.1782H171.039V14.9011H172.139V13.4955L173.78 12.9912V14.8995H175.624V16.1782H175.625Z" fill="white"/>
<path d="M184.488 22.57H182.813V18.2101C182.813 16.8354 182.308 16.1473 181.296 16.1473C180.52 16.1473 179.99 16.5459 179.699 17.343C179.649 17.5106 179.621 17.7155 179.621 17.9563V22.5684H177.948V11.3823H179.621V16.0041H179.653C180.18 15.1631 180.935 14.7433 181.915 14.7433C182.608 14.7433 183.182 14.9743 183.637 15.438C184.204 16.0155 184.488 16.8745 184.488 18.01V22.57Z" fill="white"/>
<path d="M193.631 18.3727C193.631 18.6785 193.609 18.9356 193.569 19.1454H188.548C188.57 19.9035 188.81 20.481 189.274 20.8812C189.699 21.2391 190.247 21.4181 190.918 21.4181C191.661 21.4181 192.338 21.2977 192.949 21.0553L193.211 22.2396C192.497 22.5552 191.656 22.713 190.683 22.713C189.517 22.713 188.599 22.3633 187.934 21.6637C187.266 20.9642 186.936 20.0255 186.936 18.8477C186.936 17.691 187.244 16.728 187.865 15.9601C188.514 15.1402 189.391 14.7302 190.498 14.7302C191.581 14.7302 192.404 15.1402 192.96 15.9601C193.409 16.6108 193.631 17.4161 193.631 18.3727ZM192.033 17.9318C192.046 17.4259 191.936 16.9899 191.709 16.6222C191.418 16.1488 190.976 15.9113 190.377 15.9113C189.83 15.9113 189.385 16.1423 189.044 16.606C188.766 16.9752 188.602 17.4161 188.548 17.9318H192.033Z" fill="white"/>
<path d="M85.6992 51.9681H82.0712L80.0839 45.6089H73.1762L71.2831 51.9681H67.751L74.5948 30.3184H78.8218L85.6992 51.9681ZM79.4848 42.9409L77.6876 37.2877C77.4975 36.7101 77.1412 35.3501 76.6157 33.2092H76.5517C76.3425 34.13 76.0054 35.49 75.5421 37.2877L73.7769 42.9409H79.4848Z" fill="white"/>
<path d="M103.299 43.9709C103.299 46.6258 102.595 48.7245 101.186 50.2651C99.9235 51.6365 98.3563 52.3214 96.4856 52.3214C94.4663 52.3214 93.0158 51.5828 92.1324 50.1056H92.0685V58.3292H88.6625V41.4965C88.6625 39.8274 88.6194 38.1143 88.5363 36.3574H91.5317L91.7218 38.8317H91.7857C92.9215 36.9674 94.6453 36.0369 96.9585 36.0369C98.7669 36.0369 100.277 36.7641 101.484 38.2201C102.695 39.6777 103.299 41.5941 103.299 43.9709ZM99.8292 44.0978C99.8292 42.5783 99.4937 41.3257 98.8196 40.3398C98.0831 39.3117 97.0943 38.7976 95.8546 38.7976C95.0143 38.7976 94.2507 39.0839 93.5685 39.6484C92.8848 40.2178 92.4375 40.9613 92.2282 41.882C92.1228 42.3115 92.0701 42.6629 92.0701 42.9395V45.5424C92.0701 46.6779 92.4119 47.6361 93.0957 48.4186C93.7794 49.2011 94.6676 49.5915 95.7603 49.5915C97.0431 49.5915 98.0416 49.0872 98.7557 48.0819C99.4714 47.0749 99.8292 45.7474 99.8292 44.0978Z" fill="white"/>
<path d="M120.931 43.9709C120.931 46.6258 120.226 48.7245 118.816 50.2651C117.555 51.6365 115.988 52.3214 114.117 52.3214C112.098 52.3214 110.648 51.5828 109.766 50.1056H109.702V58.3292H106.296V41.4965C106.296 39.8274 106.253 38.1143 106.17 36.3574H109.165L109.355 38.8317H109.419C110.553 36.9674 112.277 36.0369 114.592 36.0369C116.399 36.0369 117.908 36.7641 119.119 38.2201C120.325 39.6777 120.931 41.5941 120.931 43.9709ZM117.461 44.0978C117.461 42.5783 117.124 41.3257 116.45 40.3398C115.713 39.3117 114.728 38.7976 113.486 38.7976C112.645 38.7976 111.883 39.0839 111.199 39.6484C110.515 40.2178 110.069 40.9613 109.86 41.882C109.756 42.3115 109.702 42.6629 109.702 42.9395V45.5424C109.702 46.6779 110.044 47.6361 110.724 48.4186C111.408 49.1995 112.296 49.5915 113.392 49.5915C114.675 49.5915 115.673 49.0872 116.388 48.0819C117.103 47.0749 117.461 45.7474 117.461 44.0978Z" fill="white"/>
<path d="M140.644 45.8969C140.644 47.7385 140.016 49.2368 138.756 50.3934C137.371 51.6575 135.443 52.2887 132.965 52.2887C130.677 52.2887 128.843 51.8397 127.455 50.9401L128.244 48.0492C129.74 48.97 131.38 49.432 133.168 49.432C134.451 49.432 135.449 49.1359 136.166 48.547C136.881 47.9581 137.237 47.1675 137.237 46.1816C137.237 45.3031 136.943 44.5629 136.353 43.9626C135.767 43.3623 134.788 42.8043 133.42 42.2886C129.698 40.8749 127.839 38.804 127.839 36.0807C127.839 34.3009 128.49 32.8417 129.796 31.7061C131.096 30.569 132.831 30.0012 135 30.0012C136.935 30.0012 138.542 30.3445 139.825 31.0294L138.973 33.8568C137.775 33.193 136.42 32.8612 134.904 32.8612C133.706 32.8612 132.77 33.1621 132.099 33.7608C131.532 34.296 131.248 34.9484 131.248 35.7211C131.248 36.5768 131.572 37.2845 132.224 37.8409C132.791 38.355 133.821 38.9113 135.317 39.5116C137.146 40.2616 138.489 41.1385 139.354 42.1438C140.215 43.1459 140.644 44.4002 140.644 45.8969Z" fill="white"/>
<path d="M151.905 38.9602H148.151V46.5395C148.151 48.4673 148.812 49.4304 150.138 49.4304C150.747 49.4304 151.252 49.3767 151.651 49.2694L151.745 51.9032C151.075 52.1586 150.191 52.2871 149.097 52.2871C147.752 52.2871 146.701 51.869 145.942 51.0345C145.186 50.1983 144.806 48.7959 144.806 46.8259V38.9569H142.569V36.354H144.806V33.4957L148.151 32.4675V36.354H151.905V38.9602Z" fill="white"/>
<path d="M168.844 44.0342C168.844 46.4337 168.17 48.4038 166.824 49.9444C165.414 51.5306 163.542 52.3212 161.208 52.3212C158.958 52.3212 157.167 51.5615 155.832 50.042C154.496 48.5226 153.829 46.6045 153.829 44.2928C153.829 41.8737 154.516 39.8923 155.894 38.3517C157.27 36.8094 159.126 36.0383 161.46 36.0383C163.709 36.0383 165.519 36.7981 166.885 38.3191C168.192 39.7947 168.844 41.6997 168.844 44.0342ZM165.31 44.1464C165.31 42.7067 165.008 41.4719 164.396 40.4421C163.682 39.196 162.661 38.5745 161.339 38.5745C159.969 38.5745 158.929 39.1976 158.215 40.4421C157.604 41.4735 157.302 42.7278 157.302 44.2115C157.302 45.6512 157.604 46.886 158.215 47.9141C158.952 49.1603 159.981 49.7817 161.308 49.7817C162.609 49.7817 163.629 49.1473 164.366 47.8816C164.994 46.8323 165.31 45.5845 165.31 44.1464Z" fill="white"/>
<path d="M179.915 39.4076C179.577 39.3442 179.218 39.3117 178.841 39.3117C177.643 39.3117 176.716 39.772 176.065 40.6945C175.497 41.5079 175.213 42.536 175.213 43.7773V51.9683H171.809L171.841 41.2736C171.841 39.4743 171.798 37.8361 171.713 36.359H174.679L174.804 39.3458H174.898C175.258 38.3193 175.825 37.4929 176.601 36.8731C177.36 36.3151 178.18 36.0369 179.063 36.0369C179.378 36.0369 179.662 36.0596 179.915 36.1003V39.4076Z" fill="white"/>
<path d="M195.147 43.4243C195.147 44.0457 195.107 44.5695 195.022 44.9974H184.805C184.844 46.5396 185.338 47.7191 186.287 48.5325C187.148 49.2597 188.262 49.6241 189.629 49.6241C191.142 49.6241 192.522 49.3784 193.763 48.8855L194.297 51.2932C192.846 51.9374 191.134 52.2579 189.158 52.2579C186.781 52.2579 184.915 51.5453 183.557 50.1219C182.202 48.6984 181.523 46.7869 181.523 44.389C181.523 42.0349 182.154 40.0746 183.418 38.5112C184.741 36.8421 186.528 36.0076 188.778 36.0076C190.987 36.0076 192.66 36.8421 193.795 38.5112C194.695 39.8371 195.147 41.4769 195.147 43.4243ZM191.899 42.5246C191.922 41.4965 191.699 40.6082 191.238 39.8583C190.648 38.8935 189.743 38.412 188.524 38.412C187.41 38.412 186.504 38.8822 185.813 39.8257C185.245 40.5757 184.908 41.4753 184.805 42.523H191.899V42.5246Z" fill="white"/>
</svg>
