<svg width="215" height="65" viewBox="0 0 215 65" fill="none" xmlns="http://www.w3.org/2000/svg">
<path d="M206.37 64.7898L8.77142 64.7898C4.42622 64.7898 0.867462 61.146 0.867462 56.6969L0.867463 8.13977C0.867463 3.69072 4.42622 0.0469103 8.77142 0.0469103L206.37 0.0469116C210.716 0.0469117 214.274 3.69072 214.274 8.13977L214.274 56.6969C214.274 61.146 210.716 64.7898 206.37 64.7898Z" fill="#001D3D"/>
<path d="M206.37 1.34379C210.03 1.34379 213.008 4.39278 213.008 8.13977L213.008 56.6969C213.008 60.4439 210.03 63.4929 206.37 63.4929L8.77142 63.4929C5.11189 63.4929 2.13407 60.4439 2.13407 56.6969L2.13407 8.13977C2.13407 4.39278 5.11189 1.34379 8.77142 1.34379L206.37 1.34379ZM206.37 0.0469116L8.77142 0.0469103C4.42622 0.0469103 0.867463 3.69072 0.867463 8.13977L0.867462 56.6969C0.867462 61.146 4.42622 64.7898 8.77142 64.7898L206.37 64.7898C210.716 64.7898 214.274 61.146 214.274 56.6969L214.274 8.13977C214.274 3.69072 210.716 0.0469117 206.37 0.0469116Z" fill="#A6A6A6"/>
<path d="M16.1774 12.2491C15.7131 12.7468 15.4443 13.5217 15.4443 14.5252L15.4443 50.3199C15.4443 51.3235 15.7131 52.0984 16.1774 52.5961L16.292 52.7053L35.882 32.6553L35.882 32.1818L16.292 12.1318L16.1774 12.2491Z" fill="white"/>
<path d="M44.7759 39.342L38.2531 32.6553L38.2531 32.1819L44.7838 25.4952L44.93 25.5822L52.664 30.0879C54.8712 31.3665 54.8712 33.4707 52.664 34.7574L44.93 39.255L44.7759 39.342Z" fill="white"/>
<path d="M43.7444 40.5001L37.0676 33.6637L17.363 53.8412C18.0961 54.6302 19.2916 54.7253 20.6511 53.9363L43.7444 40.5001Z" fill="white"/>
<path d="M43.7444 24.3371L20.6511 10.901C19.2916 10.12 18.0961 10.2151 17.363 11.0042L37.0676 31.1736L43.7444 24.3371Z" fill="white"/>
<path d="M75.8246 16.6272C75.8246 17.9787 75.4295 19.0611 74.6509 19.8684C73.7558 20.8254 72.59 21.3069 71.1613 21.3069C69.7959 21.3069 68.6301 20.8173 67.6737 19.8522C66.7153 18.873 66.2372 17.6712 66.2372 16.2327C66.2372 14.7942 66.7153 13.5924 67.6737 12.6212C68.6301 11.6481 69.7959 11.1584 71.1613 11.1584C71.8411 11.1584 72.4892 11.3021 73.1077 11.5692C73.7242 11.8382 74.2261 12.2024 74.5897 12.6516L73.7637 13.5054C73.1294 12.7386 72.2659 12.3602 71.1613 12.3602C70.1654 12.3602 69.3019 12.7163 68.5688 13.4346C67.8436 14.1548 67.48 15.0875 67.48 16.2327C67.48 17.3778 67.8436 18.3186 68.5688 19.0389C69.3019 19.749 70.1654 20.1132 71.1613 20.1132C72.2185 20.1132 73.1077 19.749 73.8091 19.0308C74.2715 18.5553 74.5343 17.8998 74.6035 17.0622L71.1613 17.0622L71.1613 15.8928L75.7535 15.8928C75.8088 16.1457 75.8246 16.3905 75.8246 16.6272Z" fill="white" stroke="white" stroke-width="0.0639009" stroke-miterlimit="10"/>
<path d="M83.1101 12.5728L78.7965 12.5728L78.7965 15.6481L82.6853 15.6481L82.6853 16.8175L78.7965 16.8175L78.7965 19.8928L83.1101 19.8928L83.1101 21.0844L77.5754 21.0844L77.5754 11.3811L83.1101 11.3811L83.1101 12.5728Z" fill="white" stroke="white" stroke-width="0.0639009" stroke-miterlimit="10"/>
<path d="M88.2516 21.0844L87.0305 21.0844L87.0305 12.5728L84.3846 12.5728L84.3846 11.3811L90.8994 11.3811L90.8994 12.5728L88.2516 12.5728L88.2516 21.0844Z" fill="white" stroke="white" stroke-width="0.0639009" stroke-miterlimit="10"/>
<path d="M95.6142 21.0844L95.6142 11.3811L96.8334 11.3811L96.8334 21.0844L95.6142 21.0844Z" fill="white" stroke="white" stroke-width="0.0639009" stroke-miterlimit="10"/>
<path d="M102.238 21.0844L101.026 21.0844L101.026 12.5728L98.3707 12.5728L98.3707 11.3811L104.893 11.3811L104.893 12.5728L102.238 12.5728L102.238 21.0844Z" fill="white" stroke="white" stroke-width="0.0639009" stroke-miterlimit="10"/>
<path d="M117.228 19.836C116.293 20.8173 115.135 21.3069 113.754 21.3069C112.365 21.3069 111.207 20.8173 110.272 19.836C109.339 18.8568 108.875 17.655 108.875 16.2327C108.875 14.8104 109.339 13.6086 110.272 12.6293C111.207 11.6481 112.365 11.1584 113.754 11.1584C115.127 11.1584 116.285 11.6481 117.22 12.6374C118.16 13.6247 118.625 14.8184 118.625 16.2327C118.625 17.655 118.16 18.8568 117.228 19.836ZM111.175 19.0227C111.879 19.749 112.734 20.1132 113.754 20.1132C114.765 20.1132 115.629 19.749 116.325 19.0227C117.026 18.2964 117.382 17.3636 117.382 16.2327C117.382 15.1017 117.026 14.169 116.325 13.4427C115.629 12.7163 114.765 12.3521 113.754 12.3521C112.734 12.3521 111.879 12.7163 111.175 13.4427C110.474 14.169 110.118 15.1017 110.118 16.2327C110.118 17.3636 110.474 18.2964 111.175 19.0227Z" fill="white" stroke="white" stroke-width="0.0639009" stroke-miterlimit="10"/>
<path d="M120.338 21.0844L120.338 11.3811L121.82 11.3811L126.428 18.9277L126.481 18.9277L126.428 17.0623L126.428 11.3811L127.647 11.3811L127.647 21.0844L126.374 21.0844L121.549 13.1656L121.496 13.1656L121.549 15.0391L121.549 21.0844L120.338 21.0844Z" fill="white" stroke="white" stroke-width="0.0639009" stroke-miterlimit="10"/>
<path d="M108.575 35.255C104.862 35.255 101.829 38.1482 101.829 42.14C101.829 46.0994 104.862 49.0229 108.575 49.0229C112.295 49.0229 115.329 46.0994 115.329 42.14C115.329 38.1482 112.295 35.255 108.575 35.255ZM108.575 46.3118C106.537 46.3118 104.785 44.5901 104.785 42.14C104.785 39.6575 106.537 37.9661 108.575 37.9661C110.612 37.9661 112.373 39.6575 112.373 42.14C112.373 44.5901 110.612 46.3118 108.575 46.3118ZM93.8556 35.255C90.1348 35.255 87.1095 38.1482 87.1095 42.14C87.1095 46.0994 90.1348 49.0229 93.8556 49.0229C97.5744 49.0229 100.602 46.0994 100.602 42.14C100.602 38.1482 97.5744 35.255 93.8556 35.255ZM93.8556 46.3118C91.8163 46.3118 90.0577 44.5901 90.0577 42.14C90.0577 39.6575 91.8163 37.9661 93.8556 37.9661C95.8928 37.9661 97.6455 39.6575 97.6455 42.14C97.6455 44.5901 95.8928 46.3118 93.8556 46.3118ZM76.3404 37.3652L76.3404 40.2907L83.1635 40.2907C82.9639 41.9255 82.4304 43.1273 81.6123 43.9649C80.6164 44.9765 79.0653 46.0994 76.3404 46.0994C72.1414 46.0994 68.8534 42.6296 68.8534 38.3302C68.8534 34.0309 72.1414 30.5611 76.3404 30.5611C78.6108 30.5611 80.2627 31.4695 81.4819 32.647L83.4955 30.5854C81.7902 28.9183 79.5217 27.6376 76.3404 27.6376C70.5824 27.6376 65.7432 32.4346 65.7432 38.3302C65.7432 44.2259 70.5824 49.0229 76.3404 49.0229C79.4526 49.0229 81.7902 47.979 83.6278 46.0205C85.511 44.0924 86.0978 41.3813 86.0978 39.1921C86.0978 38.5123 86.0425 37.8872 85.9437 37.3652L76.3404 37.3652ZM147.962 39.6332C147.407 38.0935 145.694 35.255 142.204 35.255C138.746 35.255 135.867 38.045 135.867 42.14C135.867 45.9962 138.716 49.0229 142.536 49.0229C145.625 49.0229 147.407 47.0948 148.14 45.9719L145.848 44.408C145.083 45.5531 144.042 46.3118 142.536 46.3118C141.04 46.3118 139.967 45.6098 139.28 44.2259L148.272 40.4162L147.962 39.6332ZM138.794 41.9255C138.716 39.271 140.807 37.9114 142.305 37.9114C143.479 37.9114 144.474 38.5123 144.806 39.3722L138.794 41.9255ZM131.484 48.6041L134.44 48.6041L134.44 28.372L131.484 28.372L131.484 48.6041ZM126.643 36.7886L126.544 36.7886C125.88 35.9833 124.614 35.255 123.009 35.255C119.642 35.255 116.564 38.2817 116.564 42.1622C116.564 46.0205 119.642 49.0229 123.009 49.0229C124.614 49.0229 125.88 48.2885 126.544 47.459L126.643 47.459L126.643 48.4463C126.643 51.0785 125.27 52.4928 123.055 52.4928C121.249 52.4928 120.128 51.1574 119.666 50.0345L117.095 51.1331C117.836 52.9581 119.798 55.2039 123.055 55.2039C126.521 55.2039 129.445 53.1159 129.445 48.0356L129.445 35.6738L126.643 35.6738L126.643 36.7886ZM123.262 46.3118C121.225 46.3118 119.52 44.5658 119.52 42.1622C119.52 39.7364 121.225 37.9661 123.262 37.9661C125.27 37.9661 126.853 39.7364 126.853 42.1622C126.853 44.5658 125.27 46.3118 123.262 46.3118ZM161.802 28.372L154.732 28.372L154.732 48.6041L157.68 48.6041L157.68 40.9382L161.802 40.9382C165.076 40.9382 168.287 38.5123 168.287 34.6541C168.287 30.7978 165.068 28.372 161.802 28.372ZM161.879 38.1239L157.68 38.1239L157.68 31.1863L161.879 31.1863C164.08 31.1863 165.337 33.0577 165.337 34.6541C165.337 36.22 164.08 38.1239 161.879 38.1239ZM180.104 35.2165C177.973 35.2165 175.758 36.1796 174.847 38.3141L177.464 39.4369C178.027 38.3141 179.062 37.9499 180.157 37.9499C181.686 37.9499 183.237 38.8907 183.261 40.5517L183.261 40.7642C182.728 40.4486 181.586 39.9812 180.181 39.9812C177.363 39.9812 174.492 41.5694 174.492 44.5334C174.492 47.2445 176.8 48.9906 179.394 48.9906C181.378 48.9906 182.473 48.0741 183.16 47.0078L183.261 47.0078L183.261 48.5718L186.109 48.5718L186.109 40.8107C186.109 37.2236 183.492 35.2165 180.104 35.2165ZM179.748 46.3037C178.784 46.3037 177.44 45.8141 177.44 44.5901C177.44 43.0241 179.116 42.4232 180.566 42.4232C181.864 42.4232 182.473 42.7166 183.261 43.103C183.03 44.9765 181.455 46.3037 179.748 46.3037ZM196.483 35.6596L193.094 44.4302L192.993 44.4302L189.49 35.6596L186.31 35.6596L191.574 47.9162L188.571 54.7365L191.651 54.7365L199.763 35.6596L196.483 35.6596ZM169.907 48.6041L172.864 48.6041L172.864 28.372L169.907 28.372L169.907 48.6041Z" fill="white"/>
</svg>
